<svg width="24" height="24" viewBox="0 0 24 24" xmlns="http://www.w3.org/2000/svg">
    <path d="M19.636 4.454A17.673 17.673 0 0 0 15.097 3c-.195.36-.424.845-.581 1.23a16.352 16.352 0 0 0-5.03 0c-.158-.385-.391-.87-.589-1.23a17.614 17.614 0 0 0-4.542 1.458C1.483 8.882.705 13.198 1.093 17.45 3 18.9 4.845 19.782 6.66 20.359c.448-.63.848-1.298 1.192-2.002a11.63 11.63 0 0 1-1.877-.932c.157-.118.311-.243.46-.37 3.62 1.725 7.553 1.725 11.13 0 .15.127.304.252.46.37-.595.366-1.225.68-1.88.934.344.702.742 1.373 1.191 2.001 1.817-.576 3.665-1.457 5.57-2.91.457-4.93-.78-9.206-3.27-12.996zM8.64 14.78c-1.175 0-2.139-.978-2.139-2.169s.943-2.17 2.139-2.17c1.195 0 2.159.977 2.138 2.17.002 1.191-.943 2.17-2.138 2.17zm6.722 0c-1.175 0-2.139-.978-2.139-2.169s.943-2.17 2.139-2.17c1.196 0 2.16.977 2.139 2.17 0 1.191-.943 2.17-2.14 2.17z" fill="#FFF" fill-rule="nonzero"/>
</svg>
