<svg width="24" height="24" viewBox="0 0 24 24" xmlns="http://www.w3.org/2000/svg">
    <path d="M18.417 1H5.583A4.584 4.584 0 0 0 1 5.583v12.834A4.584 4.584 0 0 0 5.583 23h12.834A4.583 4.583 0 0 0 23 18.417V5.583A4.583 4.583 0 0 0 18.417 1zM8.333 18.417h-2.75V8.333h2.75v10.084zM6.958 7.17a1.611 1.611 0 0 1-1.604-1.617c0-.893.719-1.617 1.604-1.617.886 0 1.604.724 1.604 1.617a1.61 1.61 0 0 1-1.604 1.617zm12.375 11.246h-2.75V13.28c0-3.088-3.666-2.854-3.666 0v5.137h-2.75V8.333h2.75v1.618c1.28-2.37 6.416-2.545 6.416 2.27v6.196z" fill="#FFF" fill-rule="nonzero"/>
</svg>
