<svg width="100" height="100" viewBox="0 0 100 100" xmlns="http://www.w3.org/2000/svg" xmlns:xlink="http://www.w3.org/1999/xlink">
    <defs>
        <path id="bfdthrzr2a" d="M0 0h40v19H0z"/>
        <path id="rts8dxl3hc" d="M0 0h19v40H0z"/>
        <path id="edo59pm1ve" d="M0 0h19v40H0z"/>
    </defs>
    <g fill="none" fill-rule="evenodd">
        <path d="M0 0h100v100H0z"/>
        <path d="M76.193 25h16.61c.688 0 1.24-.58 1.194-1.267-.624-9.505-8.225-17.106-17.73-17.73A1.195 1.195 0 0 0 75 7.197v16.61c0 .659.534 1.193 1.193 1.193M25 23.807V7.197c0-.688-.58-1.24-1.267-1.194-9.505.624-17.106 8.225-17.73 17.73A1.195 1.195 0 0 0 7.197 25h16.61c.659 0 1.193-.534 1.193-1.193M23.807 75H7.197c-.688 0-1.24.58-1.194 1.267.624 9.505 8.225 17.106 17.73 17.73A1.195 1.195 0 0 0 25 92.803v-16.61c0-.659-.534-1.193-1.193-1.193M75 76.193v16.61c0 .688.58 1.24 1.267 1.194 9.505-.624 17.106-8.225 17.73-17.73A1.195 1.195 0 0 0 92.803 75h-16.61c-.659 0-1.193.534-1.193 1.193" fill="#FF6700"/>
        <path d="M31.26 25c-.723 0-1.305-.58-1.257-1.264C30.689 13.832 39.38 6 50 6s19.31 7.832 19.997 17.736c.048.685-.534 1.264-1.257 1.264H31.26z" fill="#FF2F00"/>
        <g transform="translate(30 75)">
            <mask id="ttm9oxiomb" fill="#fff">
                <use xlink:href="#bfdthrzr2a"/>
            </mask>
            <path d="M38.74 0c.723 0 1.305.58 1.257 1.264C39.311 11.168 30.62 19 20 19S.69 11.168.003 1.264C-.045.58.537 0 1.26 0h37.48z" fill="#FF2F00" mask="url(#ttm9oxiomb)"/>
        </g>
        <g transform="translate(75 30)">
            <mask id="9gvebrwtjd" fill="#fff">
                <use xlink:href="#rts8dxl3hc"/>
            </mask>
            <path d="M0 1.26C0 .537.58-.045 1.264.003 11.168.689 19 9.38 19 20S11.168 39.31 1.264 39.997C.58 40.045 0 39.463 0 38.74V1.26z" fill="#FF2F00" mask="url(#9gvebrwtjd)"/>
        </g>
        <g transform="translate(6 30)">
            <mask id="jjwygw6zdf" fill="#fff">
                <use xlink:href="#edo59pm1ve"/>
            </mask>
            <path d="M19 38.74c0 .723-.58 1.305-1.264 1.257C7.832 39.311 0 30.62 0 20S7.832.69 17.736.003C18.42-.045 19 .537 19 1.26v37.48z" fill="#FF2F00" mask="url(#jjwygw6zdf)"/>
        </g>
        <path d="M70 50c0 11.045-8.954 20-20 20s-20-8.955-20-20 8.954-20 20-20 20 8.955 20 20" fill="#E5DDDD"/>
    </g>
</svg>
