<svg width="24" height="24" viewBox="0 0 24 24" xmlns="http://www.w3.org/2000/svg">
    <g fill-rule="nonzero" fill="none">
        <path d="m9.593 15.34-.174 4.677s-.176 1.593 1.194 0a40.524 40.524 0 0 1 2.681-2.822" fill="#E1E1E1"/>
        <path d="m6.409 13.714-4.968-1.64s-.594-.243-.403-.797c.04-.114.119-.21.356-.378 1.101-.777 20.377-7.794 20.377-7.794s.544-.186.865-.063c.161.051.284.186.32.354.034.145.049.294.043.444-.002.129-.017.249-.029.437-.117 1.918-3.63 16.237-3.63 16.237s-.21.838-.964.867a1.37 1.37 0 0 1-1.005-.394c-1.478-1.288-6.586-4.765-7.715-5.53a.219.219 0 0 1-.092-.154c-.016-.08.07-.18.07-.18s8.895-8.008 9.131-8.849c.019-.065-.05-.097-.143-.069-.591.22-10.832 6.77-11.962 7.494a.538.538 0 0 1-.251.015z" fill="#FFF"/>
    </g>
</svg>
