<svg width="24" height="24" viewBox="0 0 24 24" xmlns="http://www.w3.org/2000/svg">
    <path d="M12.045 2.982c2.938 0 3.285.011 4.445.064 1.073.05 1.655.228 2.043.379.513.2.88.438 1.265.823.385.385.623.751.823 1.265.15.387.33.97.378 2.042.053 1.16.064 1.508.064 4.445 0 2.937-.01 3.285-.064 4.445-.049 1.072-.228 1.655-.378 2.043-.2.513-.438.88-.823 1.264a3.408 3.408 0 0 1-1.265.823c-.388.15-.97.33-2.043.379-1.16.053-1.507.064-4.445.064-2.937 0-3.285-.011-4.444-.064-1.073-.049-1.655-.228-2.043-.379-.513-.2-.88-.438-1.265-.823a3.408 3.408 0 0 1-.823-1.264c-.15-.388-.33-.97-.378-2.043-.053-1.16-.065-1.508-.065-4.445 0-2.937.012-3.285.065-4.445.048-1.072.228-1.655.378-2.042.2-.514.438-.88.823-1.265a3.408 3.408 0 0 1 1.265-.823c.388-.15.97-.33 2.042-.379 1.16-.053 1.508-.064 4.445-.064m0-1.982c-2.987 0-3.362.013-4.535.066-1.17.054-1.97.24-2.67.512a5.392 5.392 0 0 0-1.948 1.268 5.392 5.392 0 0 0-1.27 1.949c-.271.7-.457 1.499-.51 2.67-.054 1.173-.067 1.548-.067 4.535s.013 3.362.067 4.535c.053 1.171.239 1.97.51 2.67a5.392 5.392 0 0 0 1.27 1.949 5.392 5.392 0 0 0 1.948 1.269c.7.271 1.5.457 2.67.51 1.173.054 1.548.067 4.535.067 2.988 0 3.362-.013 4.536-.066 1.17-.054 1.97-.24 2.67-.511a5.392 5.392 0 0 0 1.948-1.27 5.392 5.392 0 0 0 1.269-1.948c.272-.7.458-1.499.511-2.67.054-1.173.066-1.548.066-4.535s-.012-3.362-.066-4.535c-.053-1.171-.24-1.97-.511-2.67a5.392 5.392 0 0 0-1.269-1.949 5.392 5.392 0 0 0-1.948-1.268c-.7-.272-1.5-.458-2.67-.512C15.407 1.013 15.033 1 12.045 1zm0 5.351a5.649 5.649 0 1 0 0 11.298 5.649 5.649 0 0 0 0-11.298zm0 9.316a3.667 3.667 0 1 1 0-7.334 3.667 3.667 0 0 1 0 7.334zm7.192-9.539a1.32 1.32 0 1 1-2.64 0 1.32 1.32 0 0 1 2.64 0z" fill="#FFF" fill-rule="nonzero"/>
</svg>
