<svg width="24" height="24" viewBox="0 0 24 24" xmlns="http://www.w3.org/2000/svg">
    <path d="M12 1c6.075 0 11 4.925 11 11s-4.925 11-11 11S1 18.075 1 12 5.925 1 12 1zm4.594 4c-.446 0-.84.266-1.024.653l-2.664-.573a.276.276 0 0 0-.21.04.26.26 0 0 0-.118.186l-.814 3.89c-1.707.052-3.243.572-4.358 1.384a1.6 1.6 0 0 0-1.116-.453c-.893 0-1.601.733-1.601 1.625 0 .666.393 1.225.945 1.478-.027.16-.04.32-.04.493 0 2.504 2.875 4.541 6.42 4.541 3.543 0 6.418-2.024 6.418-4.54 0-.16-.013-.334-.04-.494.552-.253.946-.825.946-1.491 0-.906-.722-1.625-1.602-1.625a1.6 1.6 0 0 0-1.115.453c-1.103-.8-2.613-1.319-4.293-1.385l.735-3.49 2.39.52a1.149 1.149 0 0 0 1.141 1.105c.63 0 1.142-.52 1.142-1.158 0-.64-.512-1.159-1.142-1.159zM9.716 15.548c.499.506 1.549.679 2.297.679.748 0 1.812-.173 2.297-.68a.29.29 0 0 1 .42 0 .328.328 0 0 1 0 .427c-.787.799-2.284.852-2.717.852-.446 0-1.943-.067-2.717-.852a.3.3 0 0 1 0-.426.29.29 0 0 1 .42 0zm4.804-3.796c.63 0 1.142.52 1.142 1.159 0 .626-.512 1.158-1.142 1.158-.63 0-1.142-.52-1.142-1.158 0-.64.512-1.159 1.142-1.159zm-5.04-.013c.63 0 1.142.52 1.142 1.158 0 .64-.512 1.159-1.142 1.159-.63.013-1.142-.52-1.142-1.159S8.85 11.74 9.48 11.74z" fill="#FFF" fill-rule="nonzero"/>
</svg>
