<svg width="24" height="24" viewBox="0 0 24 24" xmlns="http://www.w3.org/2000/svg">
    <path d="M23 5.156c-.81.365-1.68.612-2.592.724a4.597 4.597 0 0 0 1.984-2.544 8.94 8.94 0 0 1-2.866 1.116A4.47 4.47 0 0 0 16.231 3c-2.492 0-4.513 2.058-4.513 4.597 0 .36.04.711.117 1.048-3.752-.192-7.077-2.022-9.303-4.803a4.64 4.64 0 0 0-.612 2.31c0 1.596.797 3.003 2.008 3.827a4.433 4.433 0 0 1-2.044-.575v.058c0 2.227 1.555 4.086 3.62 4.508a4.442 4.442 0 0 1-2.038.079c.574 1.826 2.241 3.155 4.216 3.192A8.952 8.952 0 0 1 1 19.145a12.607 12.607 0 0 0 6.919 2.065c8.302 0 12.842-7.005 12.842-13.08 0-.2-.005-.397-.013-.594A9.27 9.27 0 0 0 23 5.156" fill="#FFF" fill-rule="nonzero"/>
</svg>
